 <!DOCTYPE svg PUBLIC "-//W3C//DTD SVG 1.1//EN" "http://www.w3.org/Graphics/SVG/1.1/DTD/svg11.dtd">
<svg id="a942e0e7-6291-4c72-b318-4f562cfaab5b" data-name="Layer 1" xmlns="http://www.w3.org/2000/svg" width="865.76" height="682.89" viewBox="0 0 865.76 682.89">
<defs>
<style xmlns="http://www.w3.org/1999/xhtml">*, ::after, ::before { box-sizing: border-box; }
img, svg { vertical-align: middle; }
</style>
<style xmlns="http://www.w3.org/1999/xhtml">*, body, html { -webkit-font-smoothing: antialiased; }
img, svg { max-width: 100%; }
</style>
</defs>
<path d="M710.62,544.86a42.54,42.54,0,0,0-18.19-6.29c-3-.29-6.23-.21-8.63,1.59a1.82,1.82,0,0,0-.89,1.58,2,2,0,0,0,.85,1.07,26.06,26.06,0,0,0,26.92,2.05" fill="#2f2e41" data-secondary="true"/>
<path d="M710.15,544.34A89.23,89.23,0,0,1,698.38,534,29.54,29.54,0,0,1,691,520.32a5.49,5.49,0,0,1,.58-4.57c9.42,7.33,16.76,16.82,18.57,28.59" fill="#2f2e41" data-secondary="true"/>
<path d="M710.53,544.78a42.24,42.24,0,0,1,.21-15.45A20.89,20.89,0,0,1,719,516.57c1.62,3.78.93,8.15-.21,12.11a58.75,58.75,0,0,1-8.17,17.2" fill="#2f2e41" data-secondary="true"/>
<path d="M719.74,561.33c-5.6.69-10.46,3.64-14.63,7.41a27.53,27.53,0,0,0-8.36,14.36c5.48-.34,10.12-4.2,13.46-8.54s5.7-9.08,9.42-13.13" fill="#2f2e41" data-secondary="true"/>
<path d="M721.73,563.91a36.09,36.09,0,0,1,4.16-34.11c3.19,11.32,2,24.1-4.16,34.11" fill="#2f2e41" data-secondary="true"/>
<path d="M733.88,578.39A26.11,26.11,0,0,0,709,592.75a2,2,0,0,0-.17,2,1.87,1.87,0,0,0,1.66.48c4.91-.32,9.27-3.27,12.86-6.63s6.73-7.27,10.7-10.18" fill="#2f2e41" data-secondary="true"/>
<path d="M733.5,577.61a46.46,46.46,0,0,1-.47-26c.92-3.34,2.45-6.85,5.54-8.43a1.13,1.13,0,0,1,.84-.15,1.21,1.21,0,0,1,.54.62,15.51,15.51,0,0,1,1.35,7.45,46.6,46.6,0,0,1-1.16,7.53c-1,4.61-1.49,9.56-4,13.53a28.31,28.31,0,0,0-1.6,3c-.48,1-.48,1.35-.91,2.17" fill="#2f2e41" data-secondary="true"/>
<path d="M765.69,582.4c-2.39-9.07.14-20.07,5.86-27.51.42-.54,1-1.13,1.66-1.07,1.06.1,1.35,1.5,1.35,2.56a49.59,49.59,0,0,1-8.81,26" fill="#2f2e41" data-secondary="true"/>
<path d="M768.59,584.38a40.07,40.07,0,0,0,32.83-6.73,26.61,26.61,0,0,0-17.78-2.18c-5.93,1.34-11.36,4-15,8.85" fill="#2f2e41" data-secondary="true"/>
<path d="M771,578.33c6.18-10.05,18-16.62,29.8-17.22-1.35,4.8-5.3,8.53-9.75,10.76a54.2,54.2,0,0,1-14.3,4.27c-1.9.36-4.51.77-5.75,2.26" fill="#2f2e41" data-secondary="true"/>
<path d="M766.31,549a86.51,86.51,0,0,0,3.8-17.49,29,29,0,0,0-3.48-17.27c-5.76,11.15-6.34,24.22-.5,35.31" fill="#2f2e41" data-secondary="true"/>
<path d="M785.71,539.22c6.73-12.25,20.5-22,34.42-23.41-5.38,13.37-20,23.71-34.42,23.41" fill="#2f2e41" data-secondary="true"/>
<path d="M781.46,541.63c10.07,1.52,18.63,8,28,11.84a12.62,12.62,0,0,0,6.34,1.22,5,5,0,0,0,3.1-8.78,13.46,13.46,0,0,0-4.59-2.79c-10.24-4.26-21.21-4.37-32-1.79" fill="#2f2e41" data-secondary="true"/>
<path d="M775.65,548.68c2.27.65,3.05,1.83,4.85,3.37A52.34,52.34,0,0,0,801.76,563c.8.2,1.87.27,2.27-.45s-.09-1.42-.55-2a29.43,29.43,0,0,0-12.83-8.7c-4.9-1.82-9.15-4-15-3.56" fill="#2f2e41" data-secondary="true"/>
<path d="M769.15,506.15A40.19,40.19,0,0,0,800,516.64a2.11,2.11,0,0,0,1.35-.5c.78-.85-.17-2.16-1.07-2.86-9.06-7.06-20-10-31.17-7.13" fill="#2f2e41" data-secondary="true"/>
<path d="M776.87,503.23a43,43,0,0,1,38.47-6.34A30.63,30.63,0,0,1,797,505a58.21,58.21,0,0,1-20.19-1.71" fill="#2f2e41" data-secondary="true"/>
<path d="M773.78,483.66c-.89-9-.31-16.15-.95-25.28,0-.72-.2-1.6-.89-1.85-.94-.37-1.73.79-2,1.76a29,29,0,0,0,3.86,25.17" fill="#2f2e41" data-secondary="true"/>
<path d="M773.18,484.62a53.16,53.16,0,0,0,15-14.57c3-4,5.39-8.89,4.78-13.86a14.39,14.39,0,0,0-10.77,5.38,30.18,30.18,0,0,0-5.5,11.08c-1.2,4-2,8.08-3.45,12" fill="#2f2e41" data-secondary="true"/>
<path d="M787.84,480.58a120.84,120.84,0,0,0,36.88-21.75c-4.4-1.78-9.42-.72-13.85,1.06a43.68,43.68,0,0,0-23.22,20.58" fill="#2f2e41" data-secondary="true"/>
<path d="M777.22,489.61a75.85,75.85,0,0,0,20.47.11c6.65-1.12,12.92-3.74,19.13-6.36a2.2,2.2,0,0,0,1.34-1,1.5,1.5,0,0,0-.45-1.63,4,4,0,0,0-1.63-.77c-6.73-1.88-14-1-20.66,1.24a96.19,96.19,0,0,0-18.2,8.4" fill="#2f2e41" data-secondary="true"/>
<path d="M738.39,506.39c-4.64-9.42-4.35-20.31-.34-30,2.83,4.29,3.18,9.78,2.7,14.9s-2.08,10.39-2.17,15.54" fill="#2f2e41" data-secondary="true"/>
<path d="M719.83,497a41.71,41.71,0,0,0-31.06,13.23,28.93,28.93,0,0,0,17-3.15,86,86,0,0,0,14.57-9.76" fill="#2f2e41" data-secondary="true"/>
<path d="M707.37,492.87c-5.68-.46-11.13-1.17-16.6.51a19.88,19.88,0,0,0-12.64,10.77,30,30,0,0,0,15.55-2.94,90.37,90.37,0,0,0,13.69-8.29" fill="#2f2e41" data-secondary="true"/>
<path d="M725.83,493.06c-5.1-3.36-10.35-6.73-16.28-8.08s-12.83-.36-17,4c4.81,2.82,10.65,3.16,16.16,3.16s12.42-.07,17.67,1.79" fill="#2f2e41" data-secondary="true"/>
<path d="M725.86,493.32c-8.72-8.57-12-23.95-8.52-35.66a54.3,54.3,0,0,1,8.52,35.66" fill="#2f2e41" data-secondary="true"/>
<path d="M749.86,469c1.64-3.82,2.8-7.83,4.26-11.72a34.06,34.06,0,0,1,6.11-10.77A16.1,16.1,0,0,1,771,441a43.53,43.53,0,0,1-21,28.27" fill="#2f2e41" data-secondary="true"/>
<path d="M745.51,474.1c-2.69-3.74-5.87-8.82-9.56-11.62s-8.5-4.5-13-3.42a30.27,30.27,0,0,0,22.57,15" fill="#2f2e41" data-secondary="true"/>
<path d="M746.39,469.37a63.67,63.67,0,0,1-4.31-13.95,21.71,21.71,0,0,1,2.18-14.17c4.79,9.06,6.32,18.84,2.37,28.26" fill="#2f2e41" data-secondary="true"/>
<path d="M749.9,441.25c2.69-9,10.93-15.59,19.8-18.61a7.49,7.49,0,0,1,3.47-.53,3,3,0,0,1,2.56,2.14c.32,1.52-.93,2.89-2.13,3.9a67.37,67.37,0,0,1-23.7,13.1" fill="#2f2e41" data-secondary="true"/>
<path d="M750,433.91c.35-5.78.72-11.65,2.59-17.14s5.51-10.62,10.76-13c.91,5.84-1.68,11.66-4.79,16.68s-6.86,9.78-8.72,15.38" fill="#2f2e41" data-secondary="true"/>
<path d="M749.86,437.9c-2.25-6.54-2.48-14.81-6.4-20.55-2.69-4-7.12-6.73-9.42-10.92a16.73,16.73,0,0,0,.55,12.4,36.16,36.16,0,0,0,7.26,10.36c2.89,3.1,5.38,5.38,8.08,8.71" fill="#2f2e41" data-secondary="true"/>
<path d="M749.9,630.5c-.18,0-.32-43.62-.34-97.43s.12-97.46.3-97.46.32,43.62.33,97.46S750.07,630.5,749.9,630.5Z" fill="#2f2e41" data-secondary="true"/>
<path d="M788,499.81a10.83,10.83,0,0,1-1.64.62L781.82,502c-3.79,1.35-9,3.18-14.71,5.49s-10.91,4.38-13.93,7a10.42,10.42,0,0,0-2.8,3.71c-.43,1-.51,1.65-.56,1.63s0-.15,0-.46a6.85,6.85,0,0,1,.32-1.26,9.74,9.74,0,0,1,2.69-3.94,24.16,24.16,0,0,1,6-3.77c2.42-1.12,5.1-2.3,8-3.48,5.69-2.32,11-4.14,14.81-5.38,1.92-.59,3.49-1,4.58-1.35A9.67,9.67,0,0,1,788,499.81Z" fill="#2f2e41" data-secondary="true"/>
<path d="M800.52,469.11a2.37,2.37,0,0,1-.46.49l-1.34,1.34-5.23,4.75-17.4,15.49c-6.73,6.05-12.65,11.82-16.72,16.16-2,2.18-3.64,4-4.73,5.22L753.37,514a3,3,0,0,1-.47.47,4.86,4.86,0,0,1,.38-.55c.27-.35.64-.87,1.17-1.52,1-1.35,2.6-3.16,4.59-5.38a219.15,219.15,0,0,1,16.63-16.34c6.81-6,13-11.46,17.5-15.36l5.38-4.6c.6-.49,1.09-.89,1.48-1.23A2.63,2.63,0,0,1,800.52,469.11Z" fill="#2f2e41" data-secondary="true"/>
<path d="M768.71,497.29c-.18-.06,1.24-3.35,2.7-7.49s2.1-7.63,2.27-7.61A25.79,25.79,0,0,1,772,490a51.81,51.81,0,0,1-2.11,5.25A8.47,8.47,0,0,1,768.71,497.29Z" fill="#2f2e41" data-secondary="true"/>
<path d="M749.94,523.72a8.75,8.75,0,0,1-1.05-1.23l-2.69-3.43c-2.25-2.91-5.39-6.93-8.86-11.33s-6.73-8.34-9-11.19l-2.69-3.39a9,9,0,0,1-.94-1.35,8.62,8.62,0,0,1,1.13,1.13c.7.76,1.68,1.87,2.89,3.26,2.41,2.79,5.68,6.73,9.18,11.09s6.56,8.48,8.71,11.46c1.09,1.49,1.95,2.69,2.53,3.56A8,8,0,0,1,749.94,523.72Z" fill="#2f2e41" data-secondary="true"/>
<path d="M741.58,513a15.25,15.25,0,0,1-3.51-6.55,19.21,19.21,0,0,1-.8-6.61h.29c-.13.5-.22.77-.27.76s0-.29,0-.81h.27a30.48,30.48,0,0,0,1.11,6.43A48.9,48.9,0,0,0,741.58,513Z" fill="#2f2e41" data-secondary="true"/>
<path d="M730.79,499.42a12.45,12.45,0,0,0-2.45-1.41,16.31,16.31,0,0,0-6.73-.54,42.57,42.57,0,0,0-6.84,1.1,22.55,22.55,0,0,1-2.81.68,9.32,9.32,0,0,1,2.69-1.11,31.2,31.2,0,0,1,6.9-1.34,14.75,14.75,0,0,1,7,.75A4.38,4.38,0,0,1,730.79,499.42Z" fill="#2f2e41" data-secondary="true"/>
<path d="M728.23,496.11c0,.09-1.43-.56-3.76-1.35a37.79,37.79,0,0,0-18.84-1.44c-2.42.44-3.88.88-3.92.78a4,4,0,0,1,1-.43,25.26,25.26,0,0,1,2.83-.79,33.46,33.46,0,0,1,19.12,1.45,22.47,22.47,0,0,1,2.69,1.23A3.34,3.34,0,0,1,728.23,496.11Z" fill="#2f2e41" data-secondary="true"/>
<path d="M749.86,482.19a72.73,72.73,0,0,1-2.69-9.49,75.49,75.49,0,0,1-2.13-9.65,76.79,76.79,0,0,1,2.69,9.51A79.16,79.16,0,0,1,749.86,482.19Z" fill="#2f2e41" data-secondary="true"/>
<path d="M750,482.19a47.59,47.59,0,0,0-3-5.68,25.56,25.56,0,0,0-4.46-4.6,4.23,4.23,0,0,1,1.72.89,13.83,13.83,0,0,1,3.26,3.35A12.74,12.74,0,0,1,750,482.19Z" fill="#2f2e41" data-secondary="true"/>
<path d="M749.9,607.24c-.07,0-.2-1-.69-2.89a40.76,40.76,0,0,0-2.92-7.56A104.49,104.49,0,0,0,730.83,575c-3.46-4-6.81-7.68-9.65-11.23a78.27,78.27,0,0,1-6.91-10,48.74,48.74,0,0,1-3.48-7.38c-.31-.91-.56-1.62-.68-2.11a4.85,4.85,0,0,1-.19-.75s.38,1,1.09,2.77a56.64,56.64,0,0,0,3.65,7.26,86.17,86.17,0,0,0,7,9.81c2.87,3.52,6.22,7.22,9.68,11.17,7,7.85,12.46,15.76,15.39,22a37.26,37.26,0,0,1,2.7,7.68,20.68,20.68,0,0,1,.39,2.2A5,5,0,0,1,749.9,607.24Z" fill="#2f2e41" data-secondary="true"/>
<path d="M784.35,568.33a18.25,18.25,0,0,1-1.75,1.08,40.34,40.34,0,0,0-4.68,3.1,52.67,52.67,0,0,0-6.15,5.61c-2.17,2.29-4.39,4.92-6.66,7.76-4.54,5.7-8.78,10.77-11.32,14.81a45.23,45.23,0,0,0-2.84,4.86,14.67,14.67,0,0,1-1,1.82,1.39,1.39,0,0,1,.16-.52c.17-.33.33-.8.61-1.41a45.09,45.09,0,0,1,2.69-5,162.59,162.59,0,0,1,11.21-14.91c2.28-2.84,4.53-5.51,6.73-7.78a50.42,50.42,0,0,1,6.31-5.56,34.25,34.25,0,0,1,4.84-3c.6-.3,1.09-.49,1.34-.62S784.34,568.31,784.35,568.33Z" fill="#2f2e41" data-secondary="true"/>
<path d="M785,581a25.21,25.21,0,0,1-3.77.56,50.86,50.86,0,0,0-9,1.79,26.94,26.94,0,0,0-8.07,4.26c-1.87,1.44-2.76,2.69-2.84,2.55a3.32,3.32,0,0,1,.56-.87,12.8,12.8,0,0,1,2-2,24.3,24.3,0,0,1,8.18-4.51,39.9,39.9,0,0,1,9.21-1.63A19.89,19.89,0,0,1,785,581Z" fill="#2f2e41" data-secondary="true"/>
<path d="M762.33,588.72c-.2-.1,1.53-2.69,2.86-6.27s1.55-6.73,1.76-6.65a5.88,5.88,0,0,1,0,2.05,22.8,22.8,0,0,1-1.12,4.82,23.23,23.23,0,0,1-2.22,4.43C762.89,588.16,762.42,588.78,762.33,588.72Z" fill="#2f2e41" data-secondary="true"/>
<path d="M795.51,534.42a4.54,4.54,0,0,1-.62.32l-1.79.81c-.78.33-1.73.76-2.81,1.34s-2.33,1.13-3.65,1.93L784.56,540c-.72.41-1.43.9-2.2,1.35-1.53.94-3.07,2.08-4.71,3.25a88.08,88.08,0,0,0-9.85,8.66,89.48,89.48,0,0,0-8.32,10.12c-1.12,1.68-2.21,3.26-3.08,4.83-.45.77-.92,1.51-1.35,2.24s-.75,1.45-1.11,2.12c-.74,1.35-1.27,2.61-1.79,3.72s-.93,2.06-1.24,2.85-.55,1.35-.76,1.82a2.91,2.91,0,0,1-.29.62,2.17,2.17,0,0,1,.19-.66c.16-.5.37-1.11.63-1.87a30.69,30.69,0,0,1,1.14-2.91c.5-1.12,1-2.41,1.71-3.77l1.09-2.15c.38-.74.85-1.48,1.35-2.28.87-1.59,1.95-3.19,3.07-4.88a84.37,84.37,0,0,1,8.33-10.25,88.15,88.15,0,0,1,9.94-8.68c1.67-1.17,3.24-2.3,4.78-3.21.78-.47,1.51-1,2.24-1.35s1.44-.78,2.11-1.16c1.35-.75,2.61-1.34,3.72-1.83.93-.46,1.88-.87,2.86-1.24l1.85-.71A1.85,1.85,0,0,1,795.51,534.42Z" fill="#2f2e41" data-secondary="true"/>
<path d="M768.24,552.71a4.37,4.37,0,0,1,1.5-2.24,9.52,9.52,0,0,1,6-2.31,16.44,16.44,0,0,1,6.35,1.24,9,9,0,0,1,2.41,1.17,14.8,14.8,0,0,1-2.54-.74,18.93,18.93,0,0,0-6.19-1,9.83,9.83,0,0,0-5.78,2A17.88,17.88,0,0,0,768.24,552.71Z" fill="#2f2e41" data-secondary="true"/>
<path d="M764.17,556.91a16.22,16.22,0,0,0,1.34-11.4,3.58,3.58,0,0,1,.71,1.62,11.4,11.4,0,0,1,.3,4.27,11.24,11.24,0,0,1-1.28,4C764.69,556.46,764.23,557,764.17,556.91Z" fill="#2f2e41" data-secondary="true"/>
<g opacity="0.2">
<path d="M749.9,630.5c-.18,0-.32-43.62-.34-97.43s.12-97.46.3-97.46.32,43.62.33,97.46S750.07,630.5,749.9,630.5Z"/>
<path d="M788,499.81a10.83,10.83,0,0,1-1.64.62L781.82,502c-3.79,1.35-9,3.18-14.71,5.49s-10.91,4.38-13.93,7a10.42,10.42,0,0,0-2.8,3.71c-.43,1-.51,1.65-.56,1.63s0-.15,0-.46a6.85,6.85,0,0,1,.32-1.26,9.74,9.74,0,0,1,2.69-3.94,24.16,24.16,0,0,1,6-3.77c2.42-1.12,5.1-2.3,8-3.48,5.69-2.32,11-4.14,14.81-5.38,1.92-.59,3.49-1,4.58-1.35A9.67,9.67,0,0,1,788,499.81Z"/>
<path d="M800.52,469.11a2.37,2.37,0,0,1-.46.49l-1.34,1.34-5.23,4.75-17.4,15.49c-6.73,6.05-12.65,11.82-16.72,16.16-2,2.18-3.64,4-4.73,5.22L753.37,514a3,3,0,0,1-.47.47,4.86,4.86,0,0,1,.38-.55c.27-.35.64-.87,1.17-1.52,1-1.35,2.6-3.16,4.59-5.38a219.15,219.15,0,0,1,16.63-16.34c6.81-6,13-11.46,17.5-15.36l5.38-4.6c.6-.49,1.09-.89,1.48-1.23A2.63,2.63,0,0,1,800.52,469.11Z"/>
<path d="M768.71,497.29c-.18-.06,1.24-3.35,2.7-7.49s2.1-7.63,2.27-7.61A25.79,25.79,0,0,1,772,490a51.81,51.81,0,0,1-2.11,5.25A8.47,8.47,0,0,1,768.71,497.29Z"/>
<path d="M749.94,523.72a8.75,8.75,0,0,1-1.05-1.23l-2.69-3.43c-2.25-2.91-5.39-6.93-8.86-11.33s-6.73-8.34-9-11.19l-2.69-3.39a9,9,0,0,1-.94-1.35,8.62,8.62,0,0,1,1.13,1.13c.7.76,1.68,1.87,2.89,3.26,2.41,2.79,5.68,6.73,9.18,11.09s6.56,8.48,8.71,11.46c1.09,1.49,1.95,2.69,2.53,3.56A8,8,0,0,1,749.94,523.72Z"/>
<path d="M741.58,513a15.25,15.25,0,0,1-3.51-6.55,19.21,19.21,0,0,1-.8-6.61h.29c-.13.5-.22.77-.27.76s0-.29,0-.81h.27a30.48,30.48,0,0,0,1.11,6.43A48.9,48.9,0,0,0,741.58,513Z"/>
<path d="M730.79,499.42a12.45,12.45,0,0,0-2.45-1.41,16.31,16.31,0,0,0-6.73-.54,42.57,42.57,0,0,0-6.84,1.1,22.55,22.55,0,0,1-2.81.68,9.32,9.32,0,0,1,2.69-1.11,31.2,31.2,0,0,1,6.9-1.34,14.75,14.75,0,0,1,7,.75A4.38,4.38,0,0,1,730.79,499.42Z"/>
<path d="M728.23,496.11c0,.09-1.43-.56-3.76-1.35a37.79,37.79,0,0,0-18.84-1.44c-2.42.44-3.88.88-3.92.78a4,4,0,0,1,1-.43,25.26,25.26,0,0,1,2.83-.79,33.46,33.46,0,0,1,19.12,1.45,22.47,22.47,0,0,1,2.69,1.23A3.34,3.34,0,0,1,728.23,496.11Z"/>
<path d="M749.86,482.19a72.73,72.73,0,0,1-2.69-9.49,75.49,75.49,0,0,1-2.13-9.65,76.79,76.79,0,0,1,2.69,9.51A79.16,79.16,0,0,1,749.86,482.19Z"/>
<path d="M750,482.19a47.59,47.59,0,0,0-3-5.68,25.56,25.56,0,0,0-4.46-4.6,4.23,4.23,0,0,1,1.72.89,13.83,13.83,0,0,1,3.26,3.35A12.74,12.74,0,0,1,750,482.19Z"/>
<path d="M749.9,607.24c-.07,0-.2-1-.69-2.89a40.76,40.76,0,0,0-2.92-7.56A104.49,104.49,0,0,0,730.83,575c-3.46-4-6.81-7.68-9.65-11.23a78.27,78.27,0,0,1-6.91-10,48.74,48.74,0,0,1-3.48-7.38c-.31-.91-.56-1.62-.68-2.11a4.85,4.85,0,0,1-.19-.75s.38,1,1.09,2.77a56.64,56.64,0,0,0,3.65,7.26,86.17,86.17,0,0,0,7,9.81c2.87,3.52,6.22,7.22,9.68,11.17,7,7.85,12.46,15.76,15.39,22a37.26,37.26,0,0,1,2.7,7.68,20.68,20.68,0,0,1,.39,2.2A5,5,0,0,1,749.9,607.24Z"/>
<path d="M784.35,568.33a18.25,18.25,0,0,1-1.75,1.08,40.34,40.34,0,0,0-4.68,3.1,52.67,52.67,0,0,0-6.15,5.61c-2.17,2.29-4.39,4.92-6.66,7.76-4.54,5.7-8.78,10.77-11.32,14.81a45.23,45.23,0,0,0-2.84,4.86,14.67,14.67,0,0,1-1,1.82,1.39,1.39,0,0,1,.16-.52c.17-.33.33-.8.61-1.41a45.09,45.09,0,0,1,2.69-5,162.59,162.59,0,0,1,11.21-14.91c2.28-2.84,4.53-5.51,6.73-7.78a50.42,50.42,0,0,1,6.31-5.56,34.25,34.25,0,0,1,4.84-3c.6-.3,1.09-.49,1.34-.62S784.34,568.31,784.35,568.33Z"/>
<path d="M785,581a25.21,25.21,0,0,1-3.77.56,50.86,50.86,0,0,0-9,1.79,26.94,26.94,0,0,0-8.07,4.26c-1.87,1.44-2.76,2.69-2.84,2.55a3.32,3.32,0,0,1,.56-.87,12.8,12.8,0,0,1,2-2,24.3,24.3,0,0,1,8.18-4.51,39.9,39.9,0,0,1,9.21-1.63A19.89,19.89,0,0,1,785,581Z"/>
<path d="M762.33,588.72c-.2-.1,1.53-2.69,2.86-6.27s1.55-6.73,1.76-6.65a5.88,5.88,0,0,1,0,2.05,22.8,22.8,0,0,1-1.12,4.82,23.23,23.23,0,0,1-2.22,4.43C762.89,588.16,762.42,588.78,762.33,588.72Z"/>
<path d="M795.51,534.42a4.54,4.54,0,0,1-.62.32l-1.79.81c-.78.33-1.73.76-2.81,1.34s-2.33,1.13-3.65,1.93L784.56,540c-.72.41-1.43.9-2.2,1.35-1.53.94-3.07,2.08-4.71,3.25a88.08,88.08,0,0,0-9.85,8.66,89.48,89.48,0,0,0-8.32,10.12c-1.12,1.68-2.21,3.26-3.08,4.83-.45.77-.92,1.51-1.35,2.24s-.75,1.45-1.11,2.12c-.74,1.35-1.27,2.61-1.79,3.72s-.93,2.06-1.24,2.85-.55,1.35-.76,1.82a2.91,2.91,0,0,1-.29.62,2.17,2.17,0,0,1,.19-.66c.16-.5.37-1.11.63-1.87a30.69,30.69,0,0,1,1.14-2.91c.5-1.12,1-2.41,1.71-3.77l1.09-2.15c.38-.74.85-1.48,1.35-2.28.87-1.59,1.95-3.19,3.07-4.88a84.37,84.37,0,0,1,8.33-10.25,88.15,88.15,0,0,1,9.94-8.68c1.67-1.17,3.24-2.3,4.78-3.21.78-.47,1.51-1,2.24-1.35s1.44-.78,2.11-1.16c1.35-.75,2.61-1.34,3.72-1.83.93-.46,1.88-.87,2.86-1.24l1.85-.71A1.85,1.85,0,0,1,795.51,534.42Z"/>
<path d="M768.24,552.71a4.37,4.37,0,0,1,1.5-2.24,9.52,9.52,0,0,1,6-2.31,16.44,16.44,0,0,1,6.35,1.24,9,9,0,0,1,2.41,1.17,14.8,14.8,0,0,1-2.54-.74,18.93,18.93,0,0,0-6.19-1,9.83,9.83,0,0,0-5.78,2A17.88,17.88,0,0,0,768.24,552.71Z"/>
<path d="M764.17,556.91a16.22,16.22,0,0,0,1.34-11.4,3.58,3.58,0,0,1,.71,1.62,11.4,11.4,0,0,1,.3,4.27,11.24,11.24,0,0,1-1.28,4C764.69,556.46,764.23,557,764.17,556.91Z"/>
</g>
<path d="M719.76,613.5c.94,16.68,6,33.65,13.69,50.77H767.1c7.37-17,12-33.9,12.88-50.77Z" fill="#2f2e41" data-secondary="true"/>
<path d="M774.53,640.48c0,.17-11.08.32-24.73.32s-24.71-.15-24.71-.32,11.07-.31,24.71-.31S774.53,640.31,774.53,640.48Z" fill="#fafafa"/>
<path d="M773.75,646.52c0,.17-10.38.32-23.18.32s-23.16-.15-23.16-.32,10.37-.31,23.16-.31S773.75,646.34,773.75,646.52Z" fill="#fafafa"/>
<g id="bdf3f0c6-e776-48ea-baa8-b0b38195ad4d" data-name="freepik--background-complete--inject-4">
<rect x="161.48" y="10.55" width="106.7" height="154.66" fill="#e0e0e0"/>
<rect x="156.14" y="10.55" width="106.7" height="154.66" fill="#f5f5f5"/>
<rect x="169.39" y="27.31" width="80.18" height="121.16" fill="#fff"/>
<path d="M249.57,148.46v-9c0-5.86,0-14.27-.07-25,0-21.36-.08-51.56-.14-87.24l.27.27H169.46l.29-.3c0,45.7,0,87.89-.06,121.15l-.23-.22,58.37.12,16.12.06H244l-16.07.06-58.51.11h-.23v-.23c0-33.3,0-75.45-.06-121.15v-.29H249.8v.27c-.06,35.69-.11,66-.13,87.41,0,10.66-.06,19.11-.07,24.9v8.28C249.6,148.15,249.57,148.46,249.57,148.46Z" fill="#e0e0e0"/>
<path d="M263.1,10.55a18.11,18.11,0,0,1-1.9,2.77c-1.24,1.66-3,3.91-5,6.35s-3.89,4.59-5.28,6.13a19.89,19.89,0,0,1-2.34,2.34,19.35,19.35,0,0,1,2-2.66l5.13-6.23,5.17-6.14A20.55,20.55,0,0,1,263.1,10.55Z" fill="#e0e0e0"/>
<path d="M250,148.07a99.57,99.57,0,0,0,14,17.5" fill="#fff"/>
<path d="M264,165.57a16.09,16.09,0,0,1-2.44-2.22,77.12,77.12,0,0,1-9.93-12.41,17.26,17.26,0,0,1-1.63-2.87,20.12,20.12,0,0,1,2,2.64c1.17,1.65,2.83,3.91,4.76,6.32s3.77,4.53,5.12,6A24.42,24.42,0,0,1,264,165.57Z" fill="#e0e0e0"/>
<path d="M156.11,165.1q7-8.62,14-17.25" fill="#fff"/>
<path d="M170.09,147.86a102.7,102.7,0,0,1-6.76,8.8,103.51,103.51,0,0,1-7.22,8.45,108.93,108.93,0,0,1,6.77-8.81A103.54,103.54,0,0,1,170.09,147.86Z" fill="#e0e0e0"/>
<path d="M156.14,10.55a101.08,101.08,0,0,1,6.78,8.11,100.26,100.26,0,0,1,6.33,8.47A94,94,0,0,1,162.46,19,93.14,93.14,0,0,1,156.14,10.55Z" fill="#e0e0e0"/>
<rect x="197.75" y="51.9" width="26.85" height="76.24" fill="#e0e0e0"/>
<rect x="573.19" y="42.65" width="101.64" height="101.64" fill="#ebebeb"/>
<rect x="576.18" y="45.63" width="95.66" height="95.66" fill="#fff"/>
<rect x="610.28" y="79.73" width="27.47" height="27.47" fill="#e0e0e0"/>
<rect x="674.83" y="42.67" width="4.29" height="101.62" fill="#e0e0e0"/>
<rect x="689.27" y="188.24" width="116.38" height="160.22" fill="#e0e0e0"/>
<rect x="678.17" y="188.24" width="120.19" height="160.22" fill="#ebebeb"/>
<rect x="689.64" y="199.44" width="97.29" height="136.65" fill="#fafafa"/>
<path d="M689.64,336.09H786.9V300.24H689.64Z" fill="#f5f5f5"/>
<path d="M749,260.84l3.14,7.33S745,273.41,746,281.5s7,24.4,7,24.4h12.58s6.29-22.75,6.14-26.49-5.55-11.08-5.55-11.08l2.85-7.49S757.88,254,749,260.84Z" fill="#e0e0e0"/>
<path d="M748.39,284.94c-2.44-2.19-5.47-4.92-6.46-8.62a5,5,0,0,1,.55-4.36,4.41,4.41,0,0,1,3.67-1.55,10.9,10.9,0,0,1,3.51.87l-.57,1.55a9.42,9.42,0,0,0-3-.77,2.79,2.79,0,0,0-2.34.91,3.49,3.49,0,0,0-.27,2.91c.88,3.25,3.69,5.79,6,7.84Z" fill="#e0e0e0"/>
<path d="M770.51,286l-1.17-1.1a19.93,19.93,0,0,0,3.59-5.72,8.27,8.27,0,0,0,.73-2.84,3.72,3.72,0,0,0-.76-2.47,3.17,3.17,0,0,0-2.68-1,4.79,4.79,0,0,0-2.78,1.42l-1.17-1.17a6.31,6.31,0,0,1,3.77-1.88,4.75,4.75,0,0,1,4.09,1.54,5.1,5.1,0,0,1,1.17,3.6,9.88,9.88,0,0,1-.84,3.41A21.7,21.7,0,0,1,770.51,286Z" fill="#e0e0e0"/>
<path d="M769.1,260.91a12.42,12.42,0,0,1-2.88.73,45.38,45.38,0,0,1-7.17.63,43,43,0,0,1-7.17-.53,10.75,10.75,0,0,1-2.9-.68,21,21,0,0,1,3,.26,63.3,63.3,0,0,0,14.21-.12A18.2,18.2,0,0,1,769.1,260.91Z" fill="#ebebeb"/>
<path d="M786.94,217.93c-1.18-1.67-7-3.76-9.05-4.1-9.06-1.49-18.51-1.64-27.23,1.24s-16.59,9.1-20,17.58c-1.76,4.39-2.35,9.25-4.6,13.39-2.91,5.26-8.2,8.66-12.29,13.1a32.64,32.64,0,0,0-1.71,41.95l24.42.3c-.6-9.61-.57-19.42,2.34-28.62S747.74,255,756.51,251c9.19-4.17,20.88-3.16,30.87-1.73Z" fill="#ebebeb"/>
<path d="M725,199.44c2.71,4.18-.77,11-4.32,14.47S712.62,220.33,711,225s0,9.91-.77,14.82A14.69,14.69,0,0,1,693.31,252a14.4,14.4,0,0,1-3.67-1.11V199.44Z" fill="#ebebeb"/>
<path d="M715.36,288.4s1.34,1.85.8,3-6.89,9.7-4.5,15.53a66.33,66.33,0,0,0,7.16,12.2h14.89s7.32-11.54,7.16-15.39c-.25-6.37-4.91-13-4.91-13l1.18-2.34S723.33,284.41,715.36,288.4Z" fill="#e0e0e0"/>
<path d="M786.94,336.09V326c0-6.52,0-16-.09-28.13,0-24.05-.08-58.18-.12-98.52l.27.28H689.74l.3-.3V336l-.24-.25,70.74.13h19.71l-19.56.06-70.89.13h-.25V198.89h97.86v.27c0,40.41-.11,74.6-.15,98.71,0,12,0,21.5-.07,28v9.31A2.35,2.35,0,0,1,786.94,336.09Z" fill="#e0e0e0"/>
<path d="M798.36,188.24a42.22,42.22,0,0,1-5.49,5.85,70,70,0,0,1-5.93,5.38,41.77,41.77,0,0,1,5.5-5.86A77.07,77.07,0,0,1,798.36,188.24Z" fill="#e0e0e0"/>
<path d="M677.86,188.2a56.41,56.41,0,0,1,6.15,5.41,55.62,55.62,0,0,1,5.73,5.86,55.4,55.4,0,0,1-6.15-5.4A55.72,55.72,0,0,1,677.86,188.2Z" fill="#e0e0e0"/>
<path d="M678.18,348.45a56,56,0,0,1,5.45-6.06,53.72,53.72,0,0,1,5.86-5.63,58,58,0,0,1-5.46,6.06A55.57,55.57,0,0,1,678.18,348.45Z" fill="#e0e0e0"/>
<path d="M798,348.66c-.17.1-2.15-3.15-5.23-6.64s-6-5.92-5.86-6.07a9.45,9.45,0,0,1,2,1.45,37.26,37.26,0,0,1,4.31,4.21,39.51,39.51,0,0,1,3.61,4.84A8,8,0,0,1,798,348.66Z" fill="#e0e0e0"/>
<polygon points="98.69 562.3 98.69 597.24 149.78 597.24 206.13 597.24 206.13 562.3 98.69 562.3" fill="#f5f5f5"/>
<polygon points="94.17 552.54 94.17 562.3 209.88 562.3 209.88 552.54 149.78 552.54 94.17 552.54" fill="#e0e0e0"/>
<polygon points="152.02 597.24 206.13 597.24 206.13 562.3 209.88 562.3 209.88 552.54 149.78 552.54 149.78 561.4 152.02 597.24" fill="#e0e0e0"/>
<rect x="113.71" y="567.94" width="21.79" height="5.26" fill="#e0e0e0"/>
<rect x="110.91" y="579.77" width="27.98" height="11.11" fill="#fff"/>
<path d="M222.26,672.34,220,193.84h-9.26v94.23H186.81l-.44-94.23h-9.25v94.23H94.77l-.44-94.23H85.07v94.23H61.2l-.44-94.23H51.5v478.5H63l-.31-64.21H85.07v64.21H96.59l-.32-64.21h80.85v64.21h11.52l-.29-64.21h22.42v64.21Zm-149-127.62L65,509.25H82Zm11.79-33.26v83.78l-10-43Zm0-121.79-10-43,10-40.82Zm-1.79,7.7H62.58L73.2,354.19Zm-10-58.16L63.8,298.59H83.26Zm-1.84,7.5-9.77,39.77-.39-83.34ZM62.29,512.9l9.18,39.31-8.83,35.9Zm10.93,46.87,8.85,37.93H63.87ZM62.59,498.84l-.08-.32-.29.06-.42-90.74H85.07v91Zm32.81-91h81.72v91H95.77Zm102.82-53.68,10.07,43.18H187.67Zm-11,29.95-.37-78.51,9.58,41Zm23.43,8.29L200,346.71l10.67-43.45Zm0,4.79v.15H210Zm0,116.72v78.68l-9.37-40.36Zm-11.16,30.81-8.29-35.47h17Zm-1.21-205.51-9.47-40.68h19.45Zm12.43,68.64v91h-21.9l-.08-.32-1,.22-.43-90.9Zm-13,144.36-9.48,38.67L187.86,510Zm1.76,7.52,8.86,37.93H190.15Zm-22.36-261.2v98.81H95.29l-.47-98.81ZM97.71,597.66H96.27l-.42-88.41h81.27v88.41Z" fill="#e0e0e0"/>
<rect x="154.63" y="326.42" width="15.3" height="71.33" fill="#e0e0e0"/>
<path d="M165.62,380.63a3,3,0,1,1-3.05-3h0A3,3,0,0,1,165.62,380.63Z" fill="#fafafa"/>
<rect x="160.11" y="345.31" width="4.69" height="29.15" fill="#fafafa"/>
<rect x="139.08" y="326.42" width="15.3" height="71.33" fill="#ebebeb"/>
<path d="M150.07,380.63a3,3,0,1,1-3-3h0A3,3,0,0,1,150.07,380.63Z" fill="#fafafa"/>
<rect x="144.56" y="345.31" width="4.69" height="29.15" fill="#fafafa"/>
<rect x="124.28" y="326.42" width="15.3" height="71.33" fill="#f5f5f5"/>
<path d="M135.27,380.63a3,3,0,1,1-3.05-3h0A3,3,0,0,1,135.27,380.63Z" fill="#e0e0e0"/>
<rect x="129.76" y="345.31" width="4.69" height="29.15" fill="#e0e0e0"/>
<polygon points="105.35 396.66 123.74 333.91 117.4 331.13 98.53 394.38 105.35 396.66" fill="#f5f5f5"/>
<polygon points="78.11 498.79 78.11 488 154.38 488 154.63 498.79 78.11 498.79" fill="#f5f5f5"/>
<path d="M154.41,489.76s-67.64.5-72,1.53c-.94.22-1.9,4.37,0,4.76s72,.95,72,.95Z" fill="#fff"/>
<polygon points="86.97 487.56 86.97 476.77 147.38 476.77 147.58 487.56 86.97 487.56" fill="#ebebeb"/>
<path d="M147.42,478.53s-53.59.5-57,1.53c-.75.23-1.52,4.38,0,4.76s57,.95,57,.95Z" fill="#fafafa"/>
<polygon points="86.7 476.9 86.7 466.1 147.12 466.1 147.31 476.9 86.7 476.9" fill="#e0e0e0"/>
<path d="M147.15,467.87s-53.59.49-57.05,1.52c-.75.22-1.52,4.38,0,4.76s57.05,1,57.05,1Z" fill="#fafafa"/>
<rect x="161.49" y="218.13" width="15.3" height="71.33" fill="#f5f5f5"/>
<path d="M172.44,272.35a3,3,0,1,1-3-3h0A3,3,0,0,1,172.44,272.35Z" fill="#e0e0e0"/>
<rect x="166.98" y="237.03" width="4.69" height="29.15" fill="#e0e0e0"/>
<rect x="145.94" y="218.13" width="15.3" height="71.33" fill="#ebebeb"/>
<path d="M156.93,272.35a3,3,0,1,1-3-3h0A3,3,0,0,1,156.93,272.35Z" fill="#fafafa"/>
<rect x="151.44" y="237.03" width="4.68" height="29.15" fill="#fafafa"/>
<rect x="131.14" y="218.13" width="15.3" height="71.33" fill="#e0e0e0"/>
<path d="M142.13,272.35a3,3,0,1,1-3-3h0A3,3,0,0,1,142.13,272.35Z" fill="#fafafa"/>
<rect x="136.63" y="237.03" width="4.69" height="29.15" fill="#fafafa"/>
</g>
<path d="M443.12,171.85s-6.33-52.4-67.1-54.11c-.77,0-1.54,0-2.31-.09-5.45-.32-39-1-60.63,31a79.9,79.9,0,0,0-12.55,32.46c-3.8,24.32-3.13,71.14,53,87.39,0,0-8.73,22.89-16.64,32.55,0,0,19.26-6.82,34.24-30.69,0,0,39.14,2.84,57-25.29,0,0,19.38,24.44,67.95,21.6,0,0,11.06,23.59,30.38,29.55,0,0-11.08-15.34-11.37-30.69,0,0,17.31-3.53,31.28-14.64a42.52,42.52,0,0,0,11.43-52c-6.17-12.59-18.77-27.48-44.41-33.4C513.46,165.45,490.88,158.94,443.12,171.85Z" fill="#ccc"/>
<path d="M577.69,543.15l38.93,95.2s5.29,8.78-4.09,19.58c0,0,19.63,1.52,18.57-18.31L605.19,537.87Z" fill="#f9b499"/>
<path d="M526.6,661.23c23.58,4.39,23.75-13.24,23.75-13.24l-.45-113.83s-13.5-6.36-28.56-6.93c0,0,11.27,90.18,15.38,115.8a16.93,16.93,0,0,1-3.37,13.31C531.73,658.36,529.43,660.54,526.6,661.23Z" fill="#f9b499"/>
<path d="M513.58,345s-13.12,3.36-17.38,5.92c0,0-4.69-32-3.42-40.07,0,0,3.2-4.69,3.84-12.79l.18-9.93a1.75,1.75,0,0,0-1.75-1.79h0a1.75,1.75,0,0,0-1.75,1.61l-.74,9.26s-5.53-2-9.16,1.58a7.5,7.5,0,0,0-2.09,5,11.32,11.32,0,0,0,2.31,7.5s-5.54,30.26.85,49.87c0,0,3.46,14.71,32.53,3.2Z" fill="#f9b499"/>
<polygon points="384.72 322.75 385.71 319.49 400.07 324.18 399.07 327.87 384.72 322.75" fill="#2f2e41" data-secondary="true"/>
<path d="M396.23,300.87s1.85-4.54-1.28-6.25c0,0-4.21-1.14-5.4,12.3,0,0-.87,6.94-1.14,13.45l10.8,3.53s-.71-6.54,3.7-9.95c0,0,15.63-10.24,13.07-15.07C416,298.88,413.14,289.22,396.23,300.87Z" fill="#f9b499"/>
<polygon points="260.25 648.65 259.18 655.26 273.89 655.26 272.82 646.52 260.25 648.65" fill="#f9b499"/>
<polygon points="320.56 648.65 319.5 655.26 334.21 655.26 333.14 646.52 320.56 648.65" fill="#f9b499"/>
<rect x="285.49" y="340.52" width="33.78" height="115.17" fill="#e4e4e4"/>
<path d="M255.84,450.07s44,5.14,77.29-1.82l11.09,82.11s3,27.92,0,45.61l-7.67,74.39H316.94s-3.2-90.59-1.06-99.75L298.82,482l-7.67,71.62-14.07,96.77h-20l1.7-95.06-2.56-88.81Z" fill="#2f2e41" data-secondary="true"/>
<path d="M280.92,332.13s10,12.15,10.23,26.86c0,0-.87,71.56-1.56,89.3-.07,1.86-.11,3.72-.1,5.59,0,7-.58,26.19-7.5,30.86,0,0-18.55,8.74-28.35-2.55,0,0-1.94-30,.75-46.15a63.83,63.83,0,0,0,.9-11l-.37-43.84L236.8,401.62l15.5,46.6-14.12,5.3s-22.27-46.15-21-54.67c0,0,9.67-32.38,35.06-55.16.25-.22.49-.46.73-.69C253.89,342.09,258.71,338.37,280.92,332.13Z" fill="#051242" data-primary="true"/>
<path d="M332.74,368.8s6,85.08,12.19,107.36a4.5,4.5,0,0,1-1.38,4.61c-3.89,3.41-12.24,8.88-18.6.22a89.54,89.54,0,0,1-7.53-30.92s-6.75-64.65-6.49-79.19c0,0-1.09-31.78-2.94-36.76,0,0,39.93,8.53,62.09,24.73,0,0,11.66-24.8,14-38l16,5.33s-9.17,52.86-22,55C378.11,381.16,363.67,385.65,332.74,368.8Z" fill="#051242" data-primary="true"/>
<path d="M286.53,315.22S286,325.74,283.69,331c0,0,11.16,9.52,15.32,9.52,0,0,4-3.27,7.56-6.68,0-.07-3.08-4.42-2-9.38Z" fill="#f9b499"/>
<path d="M299,340.52l-8.35,13.15s-5.31-15.62-9.74-21.54l2.77-1.13S293.65,339.74,299,340.52Z" fill="#051242" data-primary="true"/>
<path d="M299,340.52l-8.35,13.15s-5.31-15.62-9.74-21.54l2.77-1.13S293.65,339.74,299,340.52Z" opacity="0.2"/>
<path d="M306.57,333.84l1.42.28a20.57,20.57,0,0,1,1,3.72,21,21,0,0,1,.29,5.05l-4.42,6.61-5.89-9Z" fill="#051242" data-primary="true"/>
<path d="M306.57,333.84l1.42.28a20.57,20.57,0,0,1,1,3.72,21,21,0,0,1,.29,5.05l-4.42,6.61-5.89-9Z" opacity="0.2"/>
<path d="M296.8,350.25l-2.59-2.18,4.8-7.55,5.15,7.86-1.82,1.87s5.08,61.46,4.94,75l-5.69,6.68-5.11-7.25S298.4,366.24,296.8,350.25Z" fill="#051242" data-primary="true"/>
<path d="M257.69,670.46v-14a2,2,0,0,1,2-2h13.5a4.73,4.73,0,0,1,3.58,1.64l3.7,4.33L292,661.84c5,.62,8.67,3.84,8.67,8.84h0Z" fill="#051242" data-primary="true"/>
<path d="M318,670.46v-14a2,2,0,0,1,2-2h13.5a4.73,4.73,0,0,1,3.58,1.64l3.7,4.33,11.53,1.46c5,.62,8.67,3.84,8.67,8.84h0Z" fill="#051242" data-primary="true"/>
<path d="M513.33,343.26,516.7,366a1.11,1.11,0,0,0,1.42.9c3.09-.91,11.25-3.54,16-7.27,0,0,6.14,32.19,6.63,59.95,0,0,23.09,1.23,40.29-3.93,0,0,10.32-2.95,14.25-2.95a77.23,77.23,0,0,1,1.85-34.27,25.16,25.16,0,0,1,8-12.41l9.5-8.06a3.47,3.47,0,0,0,.9-4.15c-2.47-5.19-8.61-17.16-14.22-20.79,0,0-13.65-5.55-17.48-3.41,0,0-1.07,10.44-23.45,13.42,0,0-14.49,1.92-10.87-12.15,0,0-14.84,2.31-35.49,11.22A1.12,1.12,0,0,0,513.33,343.26Z" fill="#051242" data-primary="true"/>
<path d="M540.72,419.55s-.62,27.47-6,35.14c0,0-19.18,58.19-17.69,74.39,0,0,21.1-1.92,34.75,7,0,0,31.11,20.46,58.82-2.13a64.64,64.64,0,0,1-3-46s6.09-54-12.41-75.27c0,0-11,1.17-18.25,4A148.53,148.53,0,0,1,540.72,419.55Z" fill="#2f2e41" data-secondary="true"/>
<path d="M600.84,370.62l6.77,16.91a15.51,15.51,0,0,1,1.12,5.11c.28,6.53-.6,23.12-13.51,44.39,0,0-18.17,10.46-8.69,20.73,0,0,13.23,8.5,17-17.18,0,0,23.66-30.46,22.35-54.46a6.31,6.31,0,0,0-.21-1.29c-.95-3.42-5.58-19.42-11.06-26.9C614.6,357.93,603.76,365.24,600.84,370.62Z" fill="#f9b499"/>
<path d="M536.51,334s3-9.06,0-24c0,0-8.73-41,20.45-41.36.74,0,1.48,0,2.21-.09,4.74-.36,25.66-.13,29.8,30.66.18,1.34.29,2.69.39,4,.16,2.13,1.38,8.65,10,13.58,0,0,25.91,8.4,13.39,31.56,0,0-5.93-11.74-11.47-15.36,0,0-11.51-4.69-17.48-3.41,0,0-12.94-3.2-8.07-25.79,0,0,3.69,1.3,5.39-6.35a6.66,6.66,0,0,0-.38-4.25c-.85-1.83-2.61-3.35-6.11.79,0,0-10-1.7-15.77-14.71,0,0-8.31,7.68-18.33,6.19,0,0-3.2,42.62,18.12,37.72a12.84,12.84,0,0,1-9.17,7.67Z" fill="#2f2e41" data-secondary="true"/>
<path d="M552.32,329.9s-3.9,9.91,6.11,9.91c0,0,17.69.66,22.6-11.61l2.77,1.38s-1.8,12.85-25.71,14c-1.6.08-3.53-.87-5-1.55-2.67-1.28-5.71-4.25-3.63-11.16Z" fill="#051242" data-primary="true"/>
<path d="M552.32,329.9s-3.9,9.91,6.11,9.91c0,0,17.69.66,22.6-11.61l2.77,1.38s-1.8,12.85-25.71,14c-1.6.08-3.53-.87-5-1.55-2.67-1.28-5.71-4.25-3.63-11.16Z" opacity="0.2"/>
<path d="M574.94,308.4s-1.58,9.09,2,15.09A13.83,13.83,0,0,0,581,328.2s-2.79,9-14.74,10.79c0,0-13.2,4.05-14.56-3.44a11.61,11.61,0,0,1,.59-5.65,12.39,12.39,0,0,0,6.33-6.72s-9.06,2.77-13.75-6.77c0,0-5.65-8.26-4.37-31,0,0,9,1.7,18.33-6.19,0,0,4.34,11.5,15.77,14.71,0,0,3.9-5.64,6.11-.79,0,0,1.35,2.18-.35,6.76,0,0-2.07,5-4.66,3.84C575.73,303.79,575.19,306.19,574.94,308.4Z" fill="#f9b499"/>
<path d="M535.9,661.52c11.26-.91,13.74-10.76,14.19-13.29a.3.3,0,0,1,.52-.15c3.73,3.82,3.32,6.53,3.27,6.79a.11.11,0,0,0,0,0v10.7a1.84,1.84,0,0,1-1.84,1.85h0a1.85,1.85,0,0,1-1.85-1.85V661a.31.31,0,0,0-.31-.31h-1.22a.33.33,0,0,0-.19.06L538,668.84a3.61,3.61,0,0,1-2.21.76H514.68a.31.31,0,0,1-.23-.51c1.67-1.89,7.77-8.41,12.43-7.8C526.88,661.29,533.41,661.65,535.9,661.52Z" fill="#2f2e41" data-secondary="true"/>
<path d="M620.29,655.8c10.68-3.67,10.64-13.83,10.45-16.39a.31.31,0,0,1,.47-.28c4.55,2.78,4.83,5.5,4.85,5.77V645l2.66,10.37a1.85,1.85,0,0,1-1.33,2.24h0a1.84,1.84,0,0,1-2.25-1.33L634,651.71a.31.31,0,0,0-.37-.22l-1.19.3a.36.36,0,0,0-.16.11l-8.11,10.47a3.63,3.63,0,0,1-1.95,1.28l-20.46,5.24a.3.3,0,0,1-.35-.43c1.14-2.25,5.44-10.08,10.1-10.65C611.49,657.81,617.91,656.54,620.29,655.8Z" fill="#2f2e41" data-secondary="true"/>
<path d="M343.74,196.53A105,105,0,0,1,353.81,153c6.92-14.42,17.83-28.35,32.73-21.49,0,0,19,6.59,18.67,51.24,0,0-1.7,48.94-27.21,65.27a15.19,15.19,0,0,1-7.72,2.44C361.31,250.67,342.84,245.34,343.74,196.53Z" fill="#2f2e41" data-secondary="true"/>
<path d="M400.14,178c-.43-11.41-2.6-26-10.23-33.62A15.88,15.88,0,0,0,370,142.48c-8.43,5.52-21.17,19.76-21.91,55.59,0,0-.36,45.38,24.53,42.45,0,0,14.27-1.06,23.05-29A99.45,99.45,0,0,0,400.14,178Zm-7.95,27.35c-5.32,18.11-13.14,23.45-16.45,25a7.63,7.63,0,0,1-2.65.64c-21.36,1.27-19.49-35-19.49-35,1-32.59,13.06-42.76,19.48-45.88a10.62,10.62,0,0,1,8.55-.38c7.83,3.1,11.3,13.18,12.82,22.47A75.19,75.19,0,0,1,392.19,205.31Z" fill="#fff"/>
<path d="M381.92,159.46a10.35,10.35,0,0,0-12.18,1.31c-4.84,4.3-11.7,14.37-11.81,37a39.21,39.21,0,0,0,2.31,13.7c2.24,6.14,6.46,12.87,13.92,10.57,0,0,16.24-5.4,16.53-35.81C390.69,186.2,392.12,165.59,381.92,159.46ZM383,202.13a25.81,25.81,0,0,1-5.58,8.74,6.81,6.81,0,0,1-7.91,1.23c-7.83-4.18-6.93-18.79-6.93-18.79.47-16.9,7.22-23.09,10.35-25.06a6.46,6.46,0,0,1,3.4-1.06c5.3,0,7.74,6.73,8.87,12.95A39.06,39.06,0,0,1,383,202.13Z" fill="#fff"/>
<ellipse cx="374.17" cy="189.74" rx="13.85" ry="6.82" transform="translate(143.57 540.21) rotate(-83.55)" fill="#fff"/>
<path d="M344.6,216.1c-3.79-39.56,11.28-67.21,11.28-67.21,12.66-22.67,24.1-19.23,24.1-19.23-36.23-8.76-42.92,60.08-42.92,60.08s-3.57,60,25.46,59.34C362.52,249.08,348.86,245.4,344.6,216.1Z" fill="#2f2e41" data-secondary="true"/>
<path d="M344.6,216.1c-3.79-39.56,11.28-67.21,11.28-67.21,12.66-22.67,24.1-19.23,24.1-19.23-36.23-8.76-42.92,60.08-42.92,60.08s-3.57,60,25.46,59.34C362.52,249.08,348.86,245.4,344.6,216.1Z" opacity="0.2"/>
<polygon points="453.4 204.5 539.2 217.34 539.18 219.88 453.1 206.88 453.4 204.5" fill="#fff"/>
<polygon points="521.13 222.86 517.15 215.47 522.27 209.5 545.72 210.64 539.32 217.89 542.59 228.69 532.93 225.7 530.51 221.16 530.79 224.99 521.13 222.86" fill="#2f2e41" data-secondary="true"/>
<path d="M240.07,454.62s-2.13,24.3,11.51,28.28c0,0,7.3.49,10-4.77a7.92,7.92,0,0,0,.45-5.82,87.67,87.67,0,0,0-10.78-22.24Z" fill="#f9b499"/>
<polygon points="239.36 455.69 253.13 450.34 252.3 448.22 238.18 453.52 239.36 455.69" fill="#2f2e41" data-secondary="true"/>
<polygon points="434.62 203.04 459.01 200.6 454.87 206.69 458.04 212.86 434.62 203.04" fill="#2f2e41" data-secondary="true"/>
<path d="M304.46,325.12a17.58,17.58,0,0,0,.6,5.88s-9.08-3.14-13.91-11.14C291.15,319.86,300,327.89,304.46,325.12Z" fill="#f4a48e"/>
<path d="M278.74,306.5S274,297,276.89,288a8.72,8.72,0,0,0,.38-4.14,8.33,8.33,0,0,1,3.48-7.47,8.43,8.43,0,0,1,5.31-1.43l10.79.48c5.79,1,11.91-6.27,11.91-6.27,7.73-6,13.36,1.6,13.36,1.6,5,10.31-3.17,15.78-3.17,15.78,3.26,8.85-.21,13.2-.21,13.2-.75-6.46-1.77-12.07-1.77-12.07-3.07,4.15-11.86,4-16.52,3.76a28.83,28.83,0,0,1-4.14-.57,27.58,27.58,0,0,0-6.71-.3c.92,10.45-3.38,14.17-3.38,14.17S279.59,300.23,278.74,306.5Z" fill="#2f2e41" data-secondary="true"/>
<path d="M286.53,316.36a2,2,0,0,1-3.4-.37,10.6,10.6,0,0,0-.7-.92,16.63,16.63,0,0,1-3.69-8.57s.78-6.15,7.48-1.77a21.18,21.18,0,0,0,3.38-14.17s3.68-1.31,6.21-.57a17.26,17.26,0,0,0,1.86.43c3.75.59,14.65,1.83,19.3-2.75,0,0,3.1,14.34,2.1,23.72,0,0-2,16.48-15.06,14.63C304,326,293.35,325.17,286.53,316.36Z" fill="#f9b499"/>
</svg>